<!-- Generated by IcoMoon.io -->
<svg version="1.1" xmlns="http://www.w3.org/2000/svg" width="64" height="32" viewBox="0 0 64 32">
<title>fundLogo</title>
<path fill="#fefefe" d="M0 0c0 6.468 0 12.937 0 19.405 4.198 0 8.397 0 12.595 0 0 4.198 0 8.397 0 12.595 12.766 0 25.532 0 38.298 0 0-4.198 0-8.397 0-12.595 4.198 0 8.397 0 12.595 0 0-6.468 0-12.937 0-19.405-21.163 0-42.325 0-63.488 0v0z"></path>
<path fill="#fdd901" d="M40.471 28.154h6.576v-5.857h-6.576z"></path>
<path fill="#0068ff" d="M40.471 22.298h6.576v-5.857h-6.576z"></path>
<path fill="#000" d="M3.846 15.559h11.714v-11.714h-11.714v11.714zM16.441 15.559h43.202v-11.714h-43.202v11.714zM39.589 28.154v-11.714h-23.148v11.714h23.148zM40.471 16.441v11.714h6.576v-11.714h-6.576zM47.488 29.036h-31.929v-12.595h-12.595v-13.477h57.56v13.477h-12.595v12.595h-0.441z"></path>
<path fill="#000" d="M23.174 10.737v0.332c0 0.199-0.020 0.39-0.061 0.572-0.043 0.184-0.118 0.345-0.225 0.484s-0.254 0.251-0.438 0.334c-0.184 0.084-0.42 0.126-0.708 0.126-0.002 0-0.002 0-0.002 0.002-0.295 0-0.536-0.043-0.722-0.126s-0.331-0.199-0.438-0.343c-0.107-0.143-0.179-0.313-0.218-0.506-0.041-0.191-0.061-0.392-0.061-0.604v-2.605c0-0.214 0.020-0.418 0.061-0.608 0.039-0.191 0.111-0.358 0.218-0.501s0.252-0.257 0.438-0.343c0.186-0.083 0.425-0.126 0.713-0.126l0.005-0.004c0.293 0 0.531 0.043 0.717 0.126 0.186 0.086 0.334 0.199 0.44 0.341s0.179 0.304 0.22 0.488c0.041 0.184 0.061 0.377 0.061 0.576v0.321h-0.931v-0.317c0-0.084-0.007-0.167-0.018-0.248s-0.036-0.154-0.070-0.221c-0.034-0.064-0.086-0.118-0.152-0.159s-0.154-0.060-0.263-0.060c-0.116 0-0.207 0.021-0.272 0.062-0.066 0.043-0.118 0.099-0.154 0.165-0.036 0.069-0.059 0.148-0.070 0.236s-0.016 0.18-0.016 0.276v2.596c0 0.092 0.005 0.182 0.014 0.27s0.032 0.167 0.068 0.236c0.034 0.071 0.086 0.126 0.152 0.167s0.157 0.062 0.275 0.062c0.107 0 0.193-0.019 0.259-0.056s0.118-0.086 0.157-0.148c0.036-0.062 0.061-0.135 0.075-0.216 0.011-0.081 0.018-0.167 0.018-0.255v-0.328h0.931zM25.721 6.83c0-0.002 0.002-0.004 0.005-0.004 0.293 0 0.531 0.043 0.718 0.126 0.186 0.086 0.331 0.199 0.438 0.343s0.179 0.313 0.22 0.503c0.039 0.193 0.059 0.394 0.059 0.606v2.605c0 0.214-0.020 0.418-0.059 0.608-0.041 0.193-0.113 0.36-0.22 0.503s-0.254 0.257-0.44 0.341c-0.189 0.084-0.427 0.126-0.715 0.126 0 0-0.002 0-0.005-0.002v0.002c-0.293 0-0.531-0.043-0.717-0.126s-0.331-0.199-0.438-0.343c-0.107-0.143-0.182-0.313-0.22-0.506-0.041-0.191-0.061-0.392-0.061-0.604v-2.605c0-0.214 0.020-0.418 0.061-0.608 0.039-0.191 0.114-0.358 0.223-0.501 0.107-0.143 0.254-0.257 0.44-0.343 0.186-0.083 0.425-0.126 0.713-0.126v0.004zM25.721 11.74c0.002 0 0.007 0 0.009 0.002s0.005 0.002 0.007 0.002c0.111-0.002 0.198-0.026 0.263-0.066s0.116-0.096 0.15-0.165c0.034-0.066 0.057-0.146 0.068-0.233s0.016-0.18 0.016-0.274v-2.596c0-0.092-0.005-0.182-0.014-0.27s-0.032-0.167-0.066-0.236c-0.034-0.069-0.086-0.124-0.152-0.167-0.066-0.041-0.159-0.062-0.277-0.062-0.007 0-0.014-0.002-0.018-0.004-0.111 0.002-0.198 0.026-0.263 0.066-0.066 0.043-0.113 0.099-0.148 0.165s-0.057 0.146-0.068 0.234c-0.011 0.088-0.016 0.18-0.016 0.274v2.596c0 0.092 0.005 0.182 0.016 0.27 0.009 0.088 0.032 0.167 0.066 0.236 0.034 0.071 0.086 0.126 0.152 0.167s0.159 0.062 0.275 0.062v0zM29.27 8.342l0.059 4.173h-0.876v-5.612h1.201l0.783 3.41 0.786-3.41h1.197v5.613h-0.876l0.054-4.126-0.758 3.425h-0.801l-0.767-3.473zM33.819 12.515v-5.612h2.516v0.848h-1.587v1.485h1.317v0.848h-1.317v1.587h1.587v0.844h-2.516zM41.479 10.527c0-0.077-0.011-0.15-0.032-0.216-0.023-0.066-0.055-0.124-0.098-0.173s-0.1-0.088-0.166-0.116c-0.066-0.028-0.143-0.041-0.232-0.041h-0.497v1.686h0.5c0.086 0 0.161-0.009 0.227-0.026 0.066-0.015 0.12-0.045 0.168-0.088 0.045-0.043 0.080-0.103 0.102-0.178 0.020-0.075 0.029-0.171 0.027-0.289v-0.559zM41.413 8.25c0-0.081-0.009-0.156-0.027-0.223s-0.048-0.122-0.086-0.171c-0.039-0.047-0.091-0.083-0.152-0.109-0.064-0.026-0.141-0.039-0.232-0.039h-0.461v1.476h0.395c0.107 0 0.195-0.013 0.27-0.036 0.073-0.024 0.132-0.060 0.177-0.109s0.077-0.109 0.095-0.184c0.018-0.073 0.027-0.161 0.025-0.266l-0.005-0.338zM42.405 11.072c0 0.259-0.030 0.478-0.086 0.66-0.059 0.182-0.148 0.332-0.268 0.448s-0.27 0.199-0.45 0.253c-0.179 0.054-0.393 0.079-0.638 0.079h-1.435v-5.608h1.415c0.241 0 0.45 0.028 0.624 0.086s0.32 0.141 0.436 0.251c0.116 0.109 0.2 0.244 0.257 0.401 0.057 0.159 0.084 0.338 0.084 0.54v0.328c0 0.293-0.043 0.525-0.129 0.696-0.086 0.173-0.227 0.287-0.422 0.341 0.191 0.049 0.341 0.161 0.45 0.33 0.109 0.171 0.164 0.39 0.164 0.653v0.544zM44.293 6.899h1.251l1.017 5.617h-0.94l-0.152-0.992h-1.11l-0.15 0.992h-0.933l1.017-5.617zM44.484 10.722h0.865l-0.431-2.843-0.434 2.843zM50.415 10.737v0.332c0 0.199-0.020 0.39-0.061 0.572-0.043 0.184-0.118 0.345-0.225 0.484s-0.254 0.251-0.438 0.334-0.42 0.126-0.708 0.126c-0.002 0-0.002 0-0.002 0.002-0.295 0-0.536-0.043-0.722-0.126s-0.331-0.199-0.438-0.343c-0.107-0.143-0.179-0.313-0.218-0.506-0.041-0.191-0.061-0.392-0.061-0.604v-2.605c0-0.214 0.020-0.418 0.061-0.608 0.039-0.191 0.111-0.358 0.218-0.501s0.252-0.257 0.438-0.343c0.186-0.083 0.425-0.126 0.713-0.126l0.005-0.004c0.293 0 0.531 0.043 0.718 0.126 0.186 0.086 0.334 0.199 0.44 0.341s0.179 0.304 0.22 0.488c0.041 0.184 0.061 0.377 0.061 0.576v0.321h-0.931v-0.317c0-0.084-0.007-0.167-0.018-0.248s-0.036-0.154-0.070-0.221c-0.034-0.064-0.086-0.118-0.152-0.159s-0.154-0.060-0.263-0.060c-0.116 0-0.207 0.021-0.272 0.062-0.066 0.043-0.118 0.099-0.154 0.165-0.036 0.069-0.059 0.148-0.070 0.236s-0.016 0.18-0.016 0.276v2.596c0 0.092 0.005 0.182 0.014 0.27s0.032 0.167 0.068 0.236c0.034 0.071 0.086 0.126 0.152 0.167s0.157 0.062 0.275 0.062c0.107 0 0.193-0.019 0.259-0.056s0.118-0.086 0.157-0.148c0.036-0.062 0.061-0.135 0.075-0.216 0.011-0.081 0.018-0.167 0.018-0.255v-0.328h0.931zM51.665 12.515v-5.612h0.926v2.358h0.341l0.872-2.358h0.99l-0.995 2.742 1.072 2.871h-0.99l-0.922-2.406h-0.368v2.406h-0.926z"></path>
<path fill="#000" d="M21.076 19.527h1.251l1.017 5.617h-0.94l-0.152-0.992h-1.11l-0.15 0.992h-0.933l1.017-5.617zM21.267 23.351h0.865l-0.431-2.843-0.434 2.843zM24.453 25.144v-5.613h0.926v4.775h1.517v0.838h-2.443zM27.909 25.144v-5.613h0.929v5.613h-0.929zM33.164 19.527l-1.029 5.617h-1.251l-1.029-5.617h0.933l0.72 4.653 0.72-4.653h0.935zM34.173 25.144v-5.613h2.516v0.848h-1.587v1.485h1.317v0.848h-1.317v1.587h1.587v0.844h-2.516z"></path>
<path fill="#000" d="M9.351 12.652l-2.4-3.183c-0.28-0.371-0.396-0.819-0.355-1.253 0.040-0.435 0.237-0.854 0.581-1.168 0.048-0.043 0.098-0.085 0.151-0.124 0.37-0.271 0.814-0.38 1.243-0.338 0.42 0.042 0.825 0.23 1.132 0.555 0.307-0.325 0.712-0.513 1.132-0.555 0.428-0.043 0.872 0.067 1.243 0.338 0.053 0.039 0.104 0.080 0.151 0.124 0.344 0.313 0.54 0.733 0.581 1.168 0.040 0.434-0.075 0.881-0.355 1.253l-2.752 3.649-0.351-0.466zM7.653 8.938l2.049 2.717 2.049-2.717c0.144-0.191 0.204-0.421 0.183-0.643-0.021-0.221-0.121-0.435-0.298-0.596-0.027-0.024-0.053-0.046-0.079-0.065-0.189-0.138-0.417-0.194-0.637-0.172-0.219 0.022-0.43 0.122-0.588 0.295-0.024 0.026-0.045 0.052-0.065 0.079l-0.565 0.772-0.565-0.772c-0.020-0.027-0.041-0.053-0.065-0.079-0.158-0.173-0.369-0.273-0.588-0.295-0.22-0.022-0.448 0.034-0.637 0.172-0.026 0.019-0.053 0.041-0.079 0.065-0.177 0.161-0.278 0.375-0.298 0.596-0.021 0.222 0.039 0.452 0.183 0.643z"></path>
</svg>
